<svg xmlns="http://www.w3.org/2000/svg" width="101" height="80" viewBox="15 1 101 68.201">
  <g id="Group_6" data-name="Group 6" transform="translate(10475 -7417)">
	<path id="lingoapp-icon" class="st0" d="M-10413.9,7460.6c0-3.1,2.5-5.6,5.6-5.6c3.1,0,5.7,2.6,5.6,5.7c-0.1,3.1-2.6,5.5-5.6,5.5
		C-10411.4,7466.2-10413.9,7463.7-10413.9,7460.6z M-10413.9,7441.3c0-3.1,2.5-5.7,5.6-5.7c3.1,0,5.7,2.6,5.6,5.7
		c0,3.1-2.6,5.6-5.6,5.6C-10411.4,7446.9-10413.9,7444.4-10413.9,7441.3z M-10413.8,7420.8c0.6-3.1,3.6-5.1,6.6-4.4
		c3.1,0.7,5,3.7,4.3,6.8c-0.6,3-3.6,5-6.7,4.3C-10412.5,7426.8-10414.5,7423.8-10413.8,7420.8L-10413.8,7420.8L-10413.8,7420.8z
		 M-10393.5,7460.6c0-3.1,2.5-5.6,5.6-5.6s5.6,2.5,5.6,5.6c0,3.1-2.5,5.6-5.6,5.6c0,0,0,0-0.1,0
		C-10391,7466.2-10393.5,7463.7-10393.5,7460.6L-10393.5,7460.6z M-10393.6,7441.9c0-3.1,2.5-5.6,5.6-5.6c3.1,0,5.6,2.5,5.6,5.6
		c0,3.1-2.5,5.6-5.6,5.6c0,0,0,0-0.1,0C-10391.1,7447.5-10393.6,7445-10393.6,7441.9L-10393.6,7441.9z M-10371.6,7461.9
		c0-3.1,2.5-5.6,5.6-5.6c3.1,0,5.6,2.5,5.6,5.6c0,3.1-2.5,5.6-5.6,5.6c0,0,0,0-0.1,0C-10369.1,7467.5-10371.6,7465-10371.6,7461.9
		L-10371.6,9461.40z"/>
</g>
</svg>
